<mxfile host="app.diagrams.net" modified="2021-08-27T03:08:06.244Z" agent="5.0 (Windows NT 10.0; Win64; x64) AppleWebKit/537.36 (KHTML, like Gecko) Chrome/92.0.4515.159 Safari/537.36" etag="t62E4NlEhZuk5kwecgrp" version="14.8.2" type="github">
  <diagram id="5n-Q9Km4UJieLNkVHSz2" name="Page-1">
    <mxGraphModel dx="1447" dy="767" grid="1" gridSize="10" guides="1" tooltips="1" connect="1" arrows="1" fold="1" page="1" pageScale="1" pageWidth="3300" pageHeight="2339" math="0" shadow="0">
      <root>
        <mxCell id="0" />
        <mxCell id="1" parent="0" />
        <mxCell id="I1L7C43uKd7px7VGqDDD-15" value="" style="rounded=0;whiteSpace=wrap;html=1;fontSize=24;fillColor=none;" vertex="1" parent="1">
          <mxGeometry x="2755" y="23" width="490" height="597" as="geometry" />
        </mxCell>
        <mxCell id="XPhgFUxSdgJl5mHS8CTc-155" value="&lt;font style=&quot;font-size: 16px;&quot;&gt;Web App&lt;/font&gt;" style="rounded=0;whiteSpace=wrap;html=1;fillColor=#d5e8d4;strokeColor=#82b366;fontSize=16;" parent="1" vertex="1">
          <mxGeometry x="100" y="930" width="200" height="60" as="geometry" />
        </mxCell>
        <mxCell id="XPhgFUxSdgJl5mHS8CTc-156" value="&lt;font style=&quot;font-size: 16px;&quot;&gt;CMS&lt;/font&gt;" style="rounded=0;whiteSpace=wrap;html=1;fillColor=#d5e8d4;strokeColor=#82b366;fontSize=16;" parent="1" vertex="1">
          <mxGeometry x="100" y="1130" width="200" height="60" as="geometry" />
        </mxCell>
        <mxCell id="XPhgFUxSdgJl5mHS8CTc-159" value="&lt;font style=&quot;font-size: 16px;&quot;&gt;API Gateway&lt;br style=&quot;font-size: 16px;&quot;&gt;&lt;br style=&quot;font-size: 16px;&quot;&gt;Traefik&lt;/font&gt;" style="ellipse;whiteSpace=wrap;html=1;aspect=fixed;fillColor=#dae8fc;strokeColor=#6c8ebf;fontSize=16;" parent="1" vertex="1">
          <mxGeometry x="500" y="885" width="150" height="150" as="geometry" />
        </mxCell>
        <mxCell id="XPhgFUxSdgJl5mHS8CTc-161" value="" style="endArrow=classic;startArrow=none;html=1;exitX=1;exitY=0.5;exitDx=0;exitDy=0;entryX=0;entryY=0.5;entryDx=0;entryDy=0;fontSize=16;startFill=0;" parent="1" source="XPhgFUxSdgJl5mHS8CTc-156" target="XPhgFUxSdgJl5mHS8CTc-159" edge="1">
          <mxGeometry width="50" height="50" relative="1" as="geometry">
            <mxPoint x="600" y="1110" as="sourcePoint" />
            <mxPoint x="650" y="1060" as="targetPoint" />
          </mxGeometry>
        </mxCell>
        <mxCell id="XPhgFUxSdgJl5mHS8CTc-162" value="" style="endArrow=classic;startArrow=none;html=1;exitX=1;exitY=0.5;exitDx=0;exitDy=0;entryX=0;entryY=0.5;entryDx=0;entryDy=0;fontSize=16;startFill=0;" parent="1" source="XPhgFUxSdgJl5mHS8CTc-155" target="XPhgFUxSdgJl5mHS8CTc-159" edge="1">
          <mxGeometry width="50" height="50" relative="1" as="geometry">
            <mxPoint x="600" y="1110" as="sourcePoint" />
            <mxPoint x="530" y="920" as="targetPoint" />
          </mxGeometry>
        </mxCell>
        <mxCell id="XPhgFUxSdgJl5mHS8CTc-163" value="&lt;font style=&quot;font-size: 16px;&quot;&gt;Database&lt;br style=&quot;font-size: 16px;&quot;&gt;MongoDB&lt;/font&gt;" style="shape=cylinder3;whiteSpace=wrap;html=1;boundedLbl=1;backgroundOutline=1;size=15;fillColor=#0050ef;strokeColor=#001DBC;fontColor=#ffffff;fontSize=16;" parent="1" vertex="1">
          <mxGeometry x="2220" y="895" width="120" height="140" as="geometry" />
        </mxCell>
        <mxCell id="XPhgFUxSdgJl5mHS8CTc-166" value="&lt;font style=&quot;font-size: 16px;&quot;&gt;Authentication&lt;br style=&quot;font-size: 16px;&quot;&gt;Service&lt;/font&gt;" style="ellipse;whiteSpace=wrap;html=1;fillColor=#e1d5e7;strokeColor=#9673a6;fontSize=16;" parent="1" vertex="1">
          <mxGeometry x="1280" y="160" width="160" height="90" as="geometry" />
        </mxCell>
        <mxCell id="XPhgFUxSdgJl5mHS8CTc-167" value="&lt;font style=&quot;font-size: 16px;&quot;&gt;Prospects&lt;br style=&quot;font-size: 16px;&quot;&gt;Service&lt;/font&gt;" style="ellipse;whiteSpace=wrap;html=1;fontSize=16;" parent="1" vertex="1">
          <mxGeometry x="760" y="1260" width="160" height="90" as="geometry" />
        </mxCell>
        <mxCell id="XPhgFUxSdgJl5mHS8CTc-168" value="" style="endArrow=classic;startArrow=none;html=1;entryX=0;entryY=0.5;entryDx=0;entryDy=0;exitX=1;exitY=0.5;exitDx=0;exitDy=0;fontSize=16;startFill=0;" parent="1" source="XPhgFUxSdgJl5mHS8CTc-159" target="XPhgFUxSdgJl5mHS8CTc-167" edge="1">
          <mxGeometry width="50" height="50" relative="1" as="geometry">
            <mxPoint x="650" y="1270" as="sourcePoint" />
            <mxPoint x="700" y="1220" as="targetPoint" />
            <Array as="points">
              <mxPoint x="680" y="960" />
              <mxPoint x="680" y="1305" />
            </Array>
          </mxGeometry>
        </mxCell>
        <mxCell id="XPhgFUxSdgJl5mHS8CTc-170" value="" style="endArrow=classic;startArrow=none;html=1;exitX=1;exitY=0.5;exitDx=0;exitDy=0;entryX=0.5;entryY=1;entryDx=0;entryDy=0;fontSize=16;startFill=0;" parent="1" source="XPhgFUxSdgJl5mHS8CTc-167" target="XPhgFUxSdgJl5mHS8CTc-166" edge="1">
          <mxGeometry width="50" height="50" relative="1" as="geometry">
            <mxPoint x="1190" y="980" as="sourcePoint" />
            <mxPoint x="1240" y="930" as="targetPoint" />
            <Array as="points">
              <mxPoint x="950" y="1270" />
              <mxPoint x="1360" y="1270" />
            </Array>
          </mxGeometry>
        </mxCell>
        <mxCell id="XPhgFUxSdgJl5mHS8CTc-171" value="" style="endArrow=classic;startArrow=none;html=1;exitX=1;exitY=0.5;exitDx=0;exitDy=0;entryX=0.5;entryY=1;entryDx=0;entryDy=0;entryPerimeter=0;fontSize=16;startFill=0;" parent="1" source="XPhgFUxSdgJl5mHS8CTc-167" target="XPhgFUxSdgJl5mHS8CTc-163" edge="1">
          <mxGeometry width="50" height="50" relative="1" as="geometry">
            <mxPoint x="1210" y="1000" as="sourcePoint" />
            <mxPoint x="1260" y="950" as="targetPoint" />
            <Array as="points">
              <mxPoint x="2280" y="1300" />
            </Array>
          </mxGeometry>
        </mxCell>
        <mxCell id="XPhgFUxSdgJl5mHS8CTc-173" value="&lt;font style=&quot;font-size: 16px;&quot;&gt;Notifications&lt;br style=&quot;font-size: 16px;&quot;&gt;Service&lt;/font&gt;" style="ellipse;whiteSpace=wrap;html=1;fillColor=#e1d5e7;strokeColor=#9673a6;fontSize=16;" parent="1" vertex="1">
          <mxGeometry x="1690" y="2570" width="160" height="90" as="geometry" />
        </mxCell>
        <mxCell id="XPhgFUxSdgJl5mHS8CTc-174" value="" style="endArrow=classic;html=1;exitX=1;exitY=0.5;exitDx=0;exitDy=0;entryX=0.5;entryY=0;entryDx=0;entryDy=0;fontSize=16;" parent="1" source="XPhgFUxSdgJl5mHS8CTc-167" target="XPhgFUxSdgJl5mHS8CTc-173" edge="1">
          <mxGeometry width="50" height="50" relative="1" as="geometry">
            <mxPoint x="1040" y="1410" as="sourcePoint" />
            <mxPoint x="1090" y="1360" as="targetPoint" />
            <Array as="points">
              <mxPoint x="950" y="1340" />
              <mxPoint x="1770" y="1340" />
            </Array>
          </mxGeometry>
        </mxCell>
        <mxCell id="XPhgFUxSdgJl5mHS8CTc-175" value="&lt;font style=&quot;font-size: 16px;&quot;&gt;Mail&lt;br style=&quot;font-size: 16px;&quot;&gt;Service&lt;/font&gt;" style="ellipse;whiteSpace=wrap;html=1;fillColor=#e1d5e7;strokeColor=#9673a6;fontSize=16;" parent="1" vertex="1">
          <mxGeometry x="1440" y="2780" width="160" height="90" as="geometry" />
        </mxCell>
        <mxCell id="XPhgFUxSdgJl5mHS8CTc-176" value="&lt;font style=&quot;font-size: 16px;&quot;&gt;SMS&lt;br style=&quot;font-size: 16px;&quot;&gt;Service&lt;/font&gt;" style="ellipse;whiteSpace=wrap;html=1;fillColor=#e1d5e7;strokeColor=#9673a6;fontSize=16;" parent="1" vertex="1">
          <mxGeometry x="1690" y="2780" width="160" height="90" as="geometry" />
        </mxCell>
        <mxCell id="XPhgFUxSdgJl5mHS8CTc-177" value="&lt;font style=&quot;font-size: 16px;&quot;&gt;Webpush&lt;br style=&quot;font-size: 16px;&quot;&gt;Service&lt;/font&gt;" style="ellipse;whiteSpace=wrap;html=1;fillColor=#e1d5e7;strokeColor=#9673a6;fontSize=16;" parent="1" vertex="1">
          <mxGeometry x="1950" y="2780" width="160" height="90" as="geometry" />
        </mxCell>
        <mxCell id="XPhgFUxSdgJl5mHS8CTc-178" value="" style="endArrow=classic;html=1;exitX=0.5;exitY=1;exitDx=0;exitDy=0;entryX=0.5;entryY=0;entryDx=0;entryDy=0;fontSize=16;" parent="1" source="XPhgFUxSdgJl5mHS8CTc-173" target="XPhgFUxSdgJl5mHS8CTc-175" edge="1">
          <mxGeometry width="50" height="50" relative="1" as="geometry">
            <mxPoint x="1190" y="2510" as="sourcePoint" />
            <mxPoint x="1240" y="2460" as="targetPoint" />
          </mxGeometry>
        </mxCell>
        <mxCell id="XPhgFUxSdgJl5mHS8CTc-179" value="" style="endArrow=classic;html=1;entryX=0.5;entryY=0;entryDx=0;entryDy=0;exitX=0.5;exitY=1;exitDx=0;exitDy=0;fontSize=16;" parent="1" source="XPhgFUxSdgJl5mHS8CTc-173" target="XPhgFUxSdgJl5mHS8CTc-176" edge="1">
          <mxGeometry width="50" height="50" relative="1" as="geometry">
            <mxPoint x="1560" y="2520" as="sourcePoint" />
            <mxPoint x="1110" y="2560" as="targetPoint" />
          </mxGeometry>
        </mxCell>
        <mxCell id="XPhgFUxSdgJl5mHS8CTc-180" value="" style="endArrow=classic;html=1;exitX=0.5;exitY=1;exitDx=0;exitDy=0;entryX=0.5;entryY=0;entryDx=0;entryDy=0;fontSize=16;" parent="1" source="XPhgFUxSdgJl5mHS8CTc-173" target="XPhgFUxSdgJl5mHS8CTc-177" edge="1">
          <mxGeometry width="50" height="50" relative="1" as="geometry">
            <mxPoint x="1630" y="2510" as="sourcePoint" />
            <mxPoint x="1680" y="2460" as="targetPoint" />
          </mxGeometry>
        </mxCell>
        <mxCell id="XPhgFUxSdgJl5mHS8CTc-182" value="&lt;font style=&quot;font-size: 16px;&quot;&gt;Contacts&lt;br style=&quot;font-size: 16px;&quot;&gt;Service&lt;/font&gt;" style="ellipse;whiteSpace=wrap;html=1;fontSize=16;" parent="1" vertex="1">
          <mxGeometry x="760" y="1460" width="160" height="90" as="geometry" />
        </mxCell>
        <mxCell id="XPhgFUxSdgJl5mHS8CTc-183" value="&lt;font style=&quot;font-size: 16px;&quot;&gt;Mobile App&lt;br style=&quot;font-size: 16px;&quot;&gt;&lt;/font&gt;" style="rounded=0;whiteSpace=wrap;html=1;fillColor=#d5e8d4;strokeColor=#82b366;fontSize=16;" parent="1" vertex="1">
          <mxGeometry x="100" y="750" width="200" height="60" as="geometry" />
        </mxCell>
        <mxCell id="XPhgFUxSdgJl5mHS8CTc-184" value="" style="endArrow=classic;startArrow=none;html=1;exitX=1;exitY=0.5;exitDx=0;exitDy=0;entryX=0;entryY=0.5;entryDx=0;entryDy=0;fontSize=16;startFill=0;" parent="1" source="XPhgFUxSdgJl5mHS8CTc-183" target="XPhgFUxSdgJl5mHS8CTc-159" edge="1">
          <mxGeometry width="50" height="50" relative="1" as="geometry">
            <mxPoint x="790" y="1050" as="sourcePoint" />
            <mxPoint x="500" y="960" as="targetPoint" />
          </mxGeometry>
        </mxCell>
        <mxCell id="XPhgFUxSdgJl5mHS8CTc-190" value="" style="endArrow=classic;startArrow=none;html=1;entryX=0;entryY=0.5;entryDx=0;entryDy=0;exitX=1;exitY=0.5;exitDx=0;exitDy=0;fontSize=16;startFill=0;" parent="1" source="XPhgFUxSdgJl5mHS8CTc-159" target="XPhgFUxSdgJl5mHS8CTc-182" edge="1">
          <mxGeometry width="50" height="50" relative="1" as="geometry">
            <mxPoint x="660" y="970" as="sourcePoint" />
            <mxPoint x="1090" y="1150" as="targetPoint" />
            <Array as="points">
              <mxPoint x="680" y="960" />
              <mxPoint x="680" y="1505" />
            </Array>
          </mxGeometry>
        </mxCell>
        <mxCell id="XPhgFUxSdgJl5mHS8CTc-191" value="" style="endArrow=classic;startArrow=none;html=1;exitX=1;exitY=0.5;exitDx=0;exitDy=0;entryX=0.5;entryY=1;entryDx=0;entryDy=0;entryPerimeter=0;fontSize=16;startFill=0;" parent="1" source="XPhgFUxSdgJl5mHS8CTc-182" target="XPhgFUxSdgJl5mHS8CTc-163" edge="1">
          <mxGeometry width="50" height="50" relative="1" as="geometry">
            <mxPoint x="940" y="1160" as="sourcePoint" />
            <mxPoint x="990" y="1110" as="targetPoint" />
            <Array as="points">
              <mxPoint x="2280" y="1500" />
            </Array>
          </mxGeometry>
        </mxCell>
        <mxCell id="XPhgFUxSdgJl5mHS8CTc-192" value="" style="endArrow=classic;startArrow=none;html=1;entryX=0.5;entryY=1;entryDx=0;entryDy=0;exitX=1;exitY=0.5;exitDx=0;exitDy=0;fontSize=16;startFill=0;" parent="1" source="XPhgFUxSdgJl5mHS8CTc-182" target="XPhgFUxSdgJl5mHS8CTc-166" edge="1">
          <mxGeometry width="50" height="50" relative="1" as="geometry">
            <mxPoint x="330" y="1340" as="sourcePoint" />
            <mxPoint x="980" y="810" as="targetPoint" />
            <Array as="points">
              <mxPoint x="940" y="1470" />
              <mxPoint x="1360" y="1470" />
            </Array>
          </mxGeometry>
        </mxCell>
        <mxCell id="XPhgFUxSdgJl5mHS8CTc-193" value="" style="endArrow=classic;html=1;exitX=1;exitY=0.5;exitDx=0;exitDy=0;entryX=0.5;entryY=0;entryDx=0;entryDy=0;fontSize=16;" parent="1" source="XPhgFUxSdgJl5mHS8CTc-182" target="XPhgFUxSdgJl5mHS8CTc-173" edge="1">
          <mxGeometry width="50" height="50" relative="1" as="geometry">
            <mxPoint x="1040" y="1260" as="sourcePoint" />
            <mxPoint x="1090" y="1210" as="targetPoint" />
            <Array as="points">
              <mxPoint x="940" y="1540" />
              <mxPoint x="1770" y="1540" />
            </Array>
          </mxGeometry>
        </mxCell>
        <mxCell id="nYNfWfQpq2BYYP_-CXCS-1" value="&lt;font style=&quot;font-size: 16px&quot;&gt;Roles &amp;amp;&lt;br&gt;Permission&lt;br style=&quot;font-size: 16px&quot;&gt;Service&lt;/font&gt;" style="ellipse;whiteSpace=wrap;html=1;fontSize=16;" parent="1" vertex="1">
          <mxGeometry x="760" y="620" width="160" height="90" as="geometry" />
        </mxCell>
        <mxCell id="o5t345xqh6htoi6Q9Kq--1" value="&lt;font style=&quot;font-size: 16px&quot;&gt;Admins&lt;br style=&quot;font-size: 16px&quot;&gt;Service&lt;/font&gt;" style="ellipse;whiteSpace=wrap;html=1;fontSize=16;" parent="1" vertex="1">
          <mxGeometry x="760" y="870" width="160" height="90" as="geometry" />
        </mxCell>
        <mxCell id="o5t345xqh6htoi6Q9Kq--2" value="&lt;font style=&quot;font-size: 16px&quot;&gt;Users&lt;br style=&quot;font-size: 16px&quot;&gt;Service&lt;/font&gt;" style="ellipse;whiteSpace=wrap;html=1;fontSize=16;" parent="1" vertex="1">
          <mxGeometry x="760" y="1070" width="160" height="90" as="geometry" />
        </mxCell>
        <mxCell id="o5t345xqh6htoi6Q9Kq--4" value="" style="endArrow=classic;html=1;exitX=0.5;exitY=1;exitDx=0;exitDy=0;entryX=0.5;entryY=0;entryDx=0;entryDy=0;" parent="1" source="o5t345xqh6htoi6Q9Kq--1" target="o5t345xqh6htoi6Q9Kq--2" edge="1">
          <mxGeometry width="50" height="50" relative="1" as="geometry">
            <mxPoint x="1420" y="1190" as="sourcePoint" />
            <mxPoint x="1470" y="1140" as="targetPoint" />
          </mxGeometry>
        </mxCell>
        <mxCell id="o5t345xqh6htoi6Q9Kq--5" value="" style="endArrow=classic;startArrow=none;html=1;entryX=0.5;entryY=1;entryDx=0;entryDy=0;entryPerimeter=0;exitX=1;exitY=0.5;exitDx=0;exitDy=0;startFill=0;" parent="1" source="o5t345xqh6htoi6Q9Kq--2" target="XPhgFUxSdgJl5mHS8CTc-163" edge="1">
          <mxGeometry width="50" height="50" relative="1" as="geometry">
            <mxPoint x="1880" y="1310" as="sourcePoint" />
            <mxPoint x="1470" y="1140" as="targetPoint" />
            <Array as="points">
              <mxPoint x="2280" y="1110" />
            </Array>
          </mxGeometry>
        </mxCell>
        <mxCell id="o5t345xqh6htoi6Q9Kq--6" value="" style="endArrow=classic;startArrow=none;html=1;exitX=1;exitY=0.5;exitDx=0;exitDy=0;entryX=0;entryY=0.5;entryDx=0;entryDy=0;startFill=0;" parent="1" source="XPhgFUxSdgJl5mHS8CTc-159" target="o5t345xqh6htoi6Q9Kq--1" edge="1">
          <mxGeometry width="50" height="50" relative="1" as="geometry">
            <mxPoint x="1460" y="1160" as="sourcePoint" />
            <mxPoint x="1510" y="1110" as="targetPoint" />
            <Array as="points">
              <mxPoint x="680" y="960" />
              <mxPoint x="680" y="915" />
            </Array>
          </mxGeometry>
        </mxCell>
        <mxCell id="o5t345xqh6htoi6Q9Kq--8" value="" style="endArrow=classic;startArrow=none;html=1;exitX=1;exitY=0.5;exitDx=0;exitDy=0;entryX=0;entryY=0.5;entryDx=0;entryDy=0;startFill=0;" parent="1" source="XPhgFUxSdgJl5mHS8CTc-159" target="o5t345xqh6htoi6Q9Kq--2" edge="1">
          <mxGeometry width="50" height="50" relative="1" as="geometry">
            <mxPoint x="1030" y="1170" as="sourcePoint" />
            <mxPoint x="1080" y="1120" as="targetPoint" />
            <Array as="points">
              <mxPoint x="680" y="960" />
              <mxPoint x="680" y="1115" />
            </Array>
          </mxGeometry>
        </mxCell>
        <mxCell id="o5t345xqh6htoi6Q9Kq--13" value="&lt;b&gt;&lt;font color=&quot;#ff3333&quot;&gt;Not implemented&lt;/font&gt;&lt;/b&gt;" style="text;html=1;align=center;verticalAlign=middle;resizable=0;points=[];autosize=1;" parent="1" vertex="1">
          <mxGeometry x="1810" y="2830" width="110" height="20" as="geometry" />
        </mxCell>
        <mxCell id="o5t345xqh6htoi6Q9Kq--14" value="&lt;b&gt;&lt;font color=&quot;#ff3333&quot;&gt;Not implemented&lt;/font&gt;&lt;/b&gt;" style="text;html=1;align=center;verticalAlign=middle;resizable=0;points=[];autosize=1;" parent="1" vertex="1">
          <mxGeometry x="2070" y="2830" width="110" height="20" as="geometry" />
        </mxCell>
        <mxCell id="o5t345xqh6htoi6Q9Kq--16" value="&lt;b&gt;&lt;font color=&quot;#ff3333&quot;&gt;Not implemented&lt;/font&gt;&lt;/b&gt;" style="text;html=1;align=center;verticalAlign=middle;resizable=0;points=[];autosize=1;" parent="1" vertex="1">
          <mxGeometry x="270" y="760" width="110" height="20" as="geometry" />
        </mxCell>
        <mxCell id="o5t345xqh6htoi6Q9Kq--19" value="Redis&lt;br&gt;Caching" style="ellipse;whiteSpace=wrap;html=1;fontSize=16;" parent="1" vertex="1">
          <mxGeometry x="2400" y="920" width="160" height="90" as="geometry" />
        </mxCell>
        <mxCell id="o5t345xqh6htoi6Q9Kq--20" value="" style="endArrow=classic;startArrow=classic;html=1;exitX=1;exitY=0.5;exitDx=0;exitDy=0;exitPerimeter=0;entryX=0;entryY=0.5;entryDx=0;entryDy=0;" parent="1" source="XPhgFUxSdgJl5mHS8CTc-163" target="o5t345xqh6htoi6Q9Kq--19" edge="1">
          <mxGeometry width="50" height="50" relative="1" as="geometry">
            <mxPoint x="2520" y="950" as="sourcePoint" />
            <mxPoint x="2570" y="900" as="targetPoint" />
          </mxGeometry>
        </mxCell>
        <mxCell id="o5t345xqh6htoi6Q9Kq--21" value="&lt;b&gt;&lt;font color=&quot;#ff3333&quot;&gt;Not implemented&lt;/font&gt;&lt;/b&gt;" style="text;html=1;align=center;verticalAlign=middle;resizable=0;points=[];autosize=1;" parent="1" vertex="1">
          <mxGeometry x="2520" y="970" width="110" height="20" as="geometry" />
        </mxCell>
        <mxCell id="BdWQ3dxMOT-940gH8wM--1" value="" style="endArrow=classic;startArrow=none;html=1;startFill=0;exitX=0.5;exitY=0;exitDx=0;exitDy=0;" parent="1" source="o5t345xqh6htoi6Q9Kq--1" edge="1">
          <mxGeometry width="50" height="50" relative="1" as="geometry">
            <mxPoint x="920" y="910" as="sourcePoint" />
            <mxPoint x="840" y="710" as="targetPoint" />
            <Array as="points">
              <mxPoint x="840" y="770" />
            </Array>
          </mxGeometry>
        </mxCell>
        <mxCell id="BdWQ3dxMOT-940gH8wM--2" value="" style="endArrow=classic;startArrow=none;html=1;exitX=1;exitY=0.5;exitDx=0;exitDy=0;startFill=0;entryX=1;entryY=0.5;entryDx=0;entryDy=0;" parent="1" source="o5t345xqh6htoi6Q9Kq--2" target="nYNfWfQpq2BYYP_-CXCS-1" edge="1">
          <mxGeometry width="50" height="50" relative="1" as="geometry">
            <mxPoint x="1340" y="730" as="sourcePoint" />
            <mxPoint x="1280" y="310" as="targetPoint" />
            <Array as="points">
              <mxPoint x="920" y="1060" />
              <mxPoint x="960" y="1060" />
              <mxPoint x="960" y="690" />
            </Array>
          </mxGeometry>
        </mxCell>
        <mxCell id="HyhClN3A_PucgApUfUjN-1" value="" style="endArrow=classic;html=1;exitX=1;exitY=0.5;exitDx=0;exitDy=0;entryX=0.5;entryY=1;entryDx=0;entryDy=0;startArrow=none;startFill=0;" parent="1" source="o5t345xqh6htoi6Q9Kq--2" target="XPhgFUxSdgJl5mHS8CTc-166" edge="1">
          <mxGeometry width="50" height="50" relative="1" as="geometry">
            <mxPoint x="1120" y="960" as="sourcePoint" />
            <mxPoint x="1170" y="910" as="targetPoint" />
            <Array as="points">
              <mxPoint x="950" y="1084" />
              <mxPoint x="1360" y="1084" />
            </Array>
          </mxGeometry>
        </mxCell>
        <mxCell id="tQ3KvmpyxeiGOm2Mb360-1" value="" style="endArrow=classic;html=1;exitX=1;exitY=0.5;exitDx=0;exitDy=0;entryX=0.5;entryY=0;entryDx=0;entryDy=0;entryPerimeter=0;" parent="1" source="XPhgFUxSdgJl5mHS8CTc-166" target="XPhgFUxSdgJl5mHS8CTc-163" edge="1">
          <mxGeometry width="50" height="50" relative="1" as="geometry">
            <mxPoint x="1890" y="700" as="sourcePoint" />
            <mxPoint x="1940" y="650" as="targetPoint" />
            <Array as="points">
              <mxPoint x="2280" y="205" />
            </Array>
          </mxGeometry>
        </mxCell>
        <mxCell id="bIBT-U9pfjOBtdSe517i-1" value="" style="endArrow=classic;html=1;exitX=1;exitY=0.5;exitDx=0;exitDy=0;entryX=0.5;entryY=1;entryDx=0;entryDy=0;" parent="1" source="nYNfWfQpq2BYYP_-CXCS-1" target="XPhgFUxSdgJl5mHS8CTc-166" edge="1">
          <mxGeometry width="50" height="50" relative="1" as="geometry">
            <mxPoint x="1450" y="520" as="sourcePoint" />
            <mxPoint x="1300" y="620" as="targetPoint" />
            <Array as="points">
              <mxPoint x="960" y="630" />
              <mxPoint x="1360" y="630" />
            </Array>
          </mxGeometry>
        </mxCell>
        <mxCell id="bIBT-U9pfjOBtdSe517i-2" value="" style="endArrow=classic;html=1;exitX=1;exitY=0.5;exitDx=0;exitDy=0;entryX=0.5;entryY=0;entryDx=0;entryDy=0;entryPerimeter=0;" parent="1" source="nYNfWfQpq2BYYP_-CXCS-1" target="XPhgFUxSdgJl5mHS8CTc-163" edge="1">
          <mxGeometry width="50" height="50" relative="1" as="geometry">
            <mxPoint x="1690" y="600" as="sourcePoint" />
            <mxPoint x="1740" y="550" as="targetPoint" />
            <Array as="points">
              <mxPoint x="2280" y="665" />
            </Array>
          </mxGeometry>
        </mxCell>
        <mxCell id="kFsV82erfkTMYHf6IbA2-1" value="" style="endArrow=classic;html=1;exitX=1;exitY=0.5;exitDx=0;exitDy=0;entryX=0.5;entryY=1;entryDx=0;entryDy=0;" parent="1" source="o5t345xqh6htoi6Q9Kq--1" target="XPhgFUxSdgJl5mHS8CTc-166" edge="1">
          <mxGeometry width="50" height="50" relative="1" as="geometry">
            <mxPoint x="1420" y="980" as="sourcePoint" />
            <mxPoint x="1470" y="930" as="targetPoint" />
            <Array as="points">
              <mxPoint x="950" y="890" />
              <mxPoint x="1050" y="890" />
              <mxPoint x="1360" y="890" />
            </Array>
          </mxGeometry>
        </mxCell>
        <mxCell id="g_RRyhpu5wVXLo7TT_2d-1" value="&lt;font style=&quot;font-size: 16px&quot;&gt;Logs&lt;br style=&quot;font-size: 16px&quot;&gt;Service&lt;/font&gt;" style="ellipse;whiteSpace=wrap;html=1;fillColor=#e1d5e7;strokeColor=#9673a6;fontSize=16;" parent="1" vertex="1">
          <mxGeometry x="2200" y="2570" width="160" height="90" as="geometry" />
        </mxCell>
        <mxCell id="g_RRyhpu5wVXLo7TT_2d-2" value="&lt;b&gt;&lt;font color=&quot;#ff3333&quot;&gt;Not implemented&lt;/font&gt;&lt;/b&gt;" style="text;html=1;align=center;verticalAlign=middle;resizable=0;points=[];autosize=1;" parent="1" vertex="1">
          <mxGeometry x="2310" y="2630" width="110" height="20" as="geometry" />
        </mxCell>
        <mxCell id="viHQmFYoZ_EekoUSks6P-1" value="" style="endArrow=classic;html=1;exitX=1;exitY=0.5;exitDx=0;exitDy=0;entryX=0;entryY=0.5;entryDx=0;entryDy=0;" parent="1" source="XPhgFUxSdgJl5mHS8CTc-159" target="nYNfWfQpq2BYYP_-CXCS-1" edge="1">
          <mxGeometry width="50" height="50" relative="1" as="geometry">
            <mxPoint x="1060" y="890" as="sourcePoint" />
            <mxPoint x="1110" y="840" as="targetPoint" />
            <Array as="points">
              <mxPoint x="680" y="960" />
              <mxPoint x="680" y="665" />
            </Array>
          </mxGeometry>
        </mxCell>
        <mxCell id="vNHtID1zLXJtWvmVe05r-1" value="Vacancies&lt;br&gt;Service" style="ellipse;whiteSpace=wrap;html=1;fontSize=16;" parent="1" vertex="1">
          <mxGeometry x="760" y="1670" width="160" height="90" as="geometry" />
        </mxCell>
        <mxCell id="vNHtID1zLXJtWvmVe05r-2" value="" style="endArrow=classic;startArrow=none;html=1;entryX=0;entryY=0.5;entryDx=0;entryDy=0;exitX=1;exitY=0.5;exitDx=0;exitDy=0;fontSize=16;startFill=0;" parent="1" source="XPhgFUxSdgJl5mHS8CTc-159" target="vNHtID1zLXJtWvmVe05r-1" edge="1">
          <mxGeometry width="50" height="50" relative="1" as="geometry">
            <mxPoint x="660" y="970" as="sourcePoint" />
            <mxPoint x="770" y="1515" as="targetPoint" />
            <Array as="points">
              <mxPoint x="680" y="960" />
              <mxPoint x="680" y="1715" />
            </Array>
          </mxGeometry>
        </mxCell>
        <mxCell id="vNHtID1zLXJtWvmVe05r-3" value="" style="endArrow=classic;startArrow=none;html=1;exitX=1;exitY=0.5;exitDx=0;exitDy=0;fontSize=16;startFill=0;entryX=0.5;entryY=1;entryDx=0;entryDy=0;entryPerimeter=0;" parent="1" source="vNHtID1zLXJtWvmVe05r-1" target="XPhgFUxSdgJl5mHS8CTc-163" edge="1">
          <mxGeometry width="50" height="50" relative="1" as="geometry">
            <mxPoint x="930" y="1515" as="sourcePoint" />
            <mxPoint x="2290" y="1030" as="targetPoint" />
            <Array as="points">
              <mxPoint x="2280" y="1715" />
            </Array>
          </mxGeometry>
        </mxCell>
        <mxCell id="vNHtID1zLXJtWvmVe05r-4" value="" style="endArrow=classic;startArrow=none;html=1;entryX=0.5;entryY=1;entryDx=0;entryDy=0;fontSize=16;startFill=0;exitX=1;exitY=0.5;exitDx=0;exitDy=0;" parent="1" source="vNHtID1zLXJtWvmVe05r-1" target="XPhgFUxSdgJl5mHS8CTc-166" edge="1">
          <mxGeometry width="50" height="50" relative="1" as="geometry">
            <mxPoint x="921" y="1715" as="sourcePoint" />
            <mxPoint x="1370" y="260" as="targetPoint" />
            <Array as="points">
              <mxPoint x="940" y="1680" />
              <mxPoint x="1360" y="1680" />
            </Array>
          </mxGeometry>
        </mxCell>
        <mxCell id="vNHtID1zLXJtWvmVe05r-5" value="" style="endArrow=classic;html=1;exitX=1;exitY=0.5;exitDx=0;exitDy=0;fontSize=16;entryX=0.5;entryY=0;entryDx=0;entryDy=0;" parent="1" source="vNHtID1zLXJtWvmVe05r-1" target="XPhgFUxSdgJl5mHS8CTc-173" edge="1">
          <mxGeometry width="50" height="50" relative="1" as="geometry">
            <mxPoint x="930" y="1515" as="sourcePoint" />
            <mxPoint x="1770" y="2040" as="targetPoint" />
            <Array as="points">
              <mxPoint x="940" y="1760" />
              <mxPoint x="1770" y="1760" />
            </Array>
          </mxGeometry>
        </mxCell>
        <mxCell id="vNHtID1zLXJtWvmVe05r-6" value="Files&lt;br&gt;Service" style="ellipse;whiteSpace=wrap;html=1;fontSize=16;" parent="1" vertex="1">
          <mxGeometry x="760" y="1880" width="160" height="90" as="geometry" />
        </mxCell>
        <mxCell id="vNHtID1zLXJtWvmVe05r-7" value="" style="endArrow=classic;startArrow=none;html=1;entryX=0;entryY=0.5;entryDx=0;entryDy=0;exitX=1;exitY=0.5;exitDx=0;exitDy=0;fontSize=16;startFill=0;" parent="1" source="XPhgFUxSdgJl5mHS8CTc-159" target="vNHtID1zLXJtWvmVe05r-6" edge="1">
          <mxGeometry width="50" height="50" relative="1" as="geometry">
            <mxPoint x="660.0000000000005" y="970" as="sourcePoint" />
            <mxPoint x="769.9999999999995" y="1725" as="targetPoint" />
            <Array as="points">
              <mxPoint x="680" y="960" />
              <mxPoint x="680" y="1925" />
            </Array>
          </mxGeometry>
        </mxCell>
        <mxCell id="vNHtID1zLXJtWvmVe05r-8" value="" style="endArrow=classic;startArrow=none;html=1;exitX=1;exitY=0.5;exitDx=0;exitDy=0;fontSize=16;startFill=0;entryX=0.5;entryY=1;entryDx=0;entryDy=0;entryPerimeter=0;" parent="1" source="vNHtID1zLXJtWvmVe05r-6" target="XPhgFUxSdgJl5mHS8CTc-163" edge="1">
          <mxGeometry width="50" height="50" relative="1" as="geometry">
            <mxPoint x="930" y="1725" as="sourcePoint" />
            <mxPoint x="2290" y="1045" as="targetPoint" />
            <Array as="points">
              <mxPoint x="2280" y="1920" />
            </Array>
          </mxGeometry>
        </mxCell>
        <mxCell id="vNHtID1zLXJtWvmVe05r-9" value="" style="endArrow=classic;startArrow=none;html=1;entryX=0.5;entryY=1;entryDx=0;entryDy=0;fontSize=16;startFill=0;exitX=1;exitY=0.5;exitDx=0;exitDy=0;" parent="1" source="vNHtID1zLXJtWvmVe05r-6" target="XPhgFUxSdgJl5mHS8CTc-166" edge="1">
          <mxGeometry width="50" height="50" relative="1" as="geometry">
            <mxPoint x="931" y="1725" as="sourcePoint" />
            <mxPoint x="1370.0000000000005" y="260" as="targetPoint" />
            <Array as="points">
              <mxPoint x="940" y="1890" />
              <mxPoint x="1360" y="1890" />
            </Array>
          </mxGeometry>
        </mxCell>
        <mxCell id="vNHtID1zLXJtWvmVe05r-15" value="" style="endArrow=classic;html=1;exitX=0.5;exitY=1;exitDx=0;exitDy=0;entryX=0.5;entryY=0;entryDx=0;entryDy=0;" parent="1" source="vNHtID1zLXJtWvmVe05r-1" target="vNHtID1zLXJtWvmVe05r-6" edge="1">
          <mxGeometry width="50" height="50" relative="1" as="geometry">
            <mxPoint x="990" y="1820" as="sourcePoint" />
            <mxPoint x="1040" y="1770" as="targetPoint" />
          </mxGeometry>
        </mxCell>
        <mxCell id="vNHtID1zLXJtWvmVe05r-17" value="Cloud Storage" style="shape=cylinder3;whiteSpace=wrap;html=1;boundedLbl=1;backgroundOutline=1;size=15;fillColor=#0050ef;strokeColor=#001DBC;fontColor=#ffffff;fontSize=16;" parent="1" vertex="1">
          <mxGeometry x="370" y="1890" width="120" height="140" as="geometry" />
        </mxCell>
        <mxCell id="vNHtID1zLXJtWvmVe05r-18" value="" style="endArrow=classic;html=1;entryX=1;entryY=0.5;entryDx=0;entryDy=0;entryPerimeter=0;endFill=1;startArrow=none;startFill=0;" parent="1" target="vNHtID1zLXJtWvmVe05r-17" edge="1">
          <mxGeometry width="50" height="50" relative="1" as="geometry">
            <mxPoint x="760" y="1925" as="sourcePoint" />
            <mxPoint x="670" y="2180" as="targetPoint" />
            <Array as="points">
              <mxPoint x="720" y="1960" />
              <mxPoint x="520" y="1960" />
            </Array>
          </mxGeometry>
        </mxCell>
        <mxCell id="I1L7C43uKd7px7VGqDDD-3" value="News and media&lt;br&gt;Service" style="ellipse;whiteSpace=wrap;html=1;fontSize=16;" vertex="1" parent="1">
          <mxGeometry x="760" y="2090" width="160" height="90" as="geometry" />
        </mxCell>
        <mxCell id="I1L7C43uKd7px7VGqDDD-4" value="" style="endArrow=classic;startArrow=none;html=1;entryX=0;entryY=0.5;entryDx=0;entryDy=0;exitX=1;exitY=0.5;exitDx=0;exitDy=0;fontSize=16;startFill=0;" edge="1" parent="1" source="XPhgFUxSdgJl5mHS8CTc-159" target="I1L7C43uKd7px7VGqDDD-3">
          <mxGeometry width="50" height="50" relative="1" as="geometry">
            <mxPoint x="650" y="960" as="sourcePoint" />
            <mxPoint x="760" y="1925" as="targetPoint" />
            <Array as="points">
              <mxPoint x="680" y="960" />
              <mxPoint x="680" y="1925" />
              <mxPoint x="680" y="2135" />
            </Array>
          </mxGeometry>
        </mxCell>
        <mxCell id="I1L7C43uKd7px7VGqDDD-5" value="" style="endArrow=classic;html=1;exitX=0.5;exitY=0;exitDx=0;exitDy=0;" edge="1" parent="1" source="I1L7C43uKd7px7VGqDDD-3">
          <mxGeometry width="50" height="50" relative="1" as="geometry">
            <mxPoint x="1060" y="2010" as="sourcePoint" />
            <mxPoint x="840" y="1970" as="targetPoint" />
          </mxGeometry>
        </mxCell>
        <mxCell id="I1L7C43uKd7px7VGqDDD-6" value="" style="endArrow=classic;html=1;entryX=0.5;entryY=1;entryDx=0;entryDy=0;exitX=1;exitY=0.5;exitDx=0;exitDy=0;" edge="1" parent="1" source="I1L7C43uKd7px7VGqDDD-3" target="XPhgFUxSdgJl5mHS8CTc-166">
          <mxGeometry width="50" height="50" relative="1" as="geometry">
            <mxPoint x="1140" y="2355.714285714286" as="sourcePoint" />
            <mxPoint x="1500" y="480" as="targetPoint" />
            <Array as="points">
              <mxPoint x="940" y="2100" />
              <mxPoint x="1360" y="2100" />
            </Array>
          </mxGeometry>
        </mxCell>
        <mxCell id="I1L7C43uKd7px7VGqDDD-7" value="" style="endArrow=classic;html=1;entryX=0.5;entryY=1;entryDx=0;entryDy=0;entryPerimeter=0;exitX=1;exitY=0.5;exitDx=0;exitDy=0;" edge="1" parent="1" source="I1L7C43uKd7px7VGqDDD-3" target="XPhgFUxSdgJl5mHS8CTc-163">
          <mxGeometry width="50" height="50" relative="1" as="geometry">
            <mxPoint x="2280" y="2090" as="sourcePoint" />
            <mxPoint x="1820" y="1480" as="targetPoint" />
            <Array as="points">
              <mxPoint x="2280" y="2135" />
            </Array>
          </mxGeometry>
        </mxCell>
        <mxCell id="I1L7C43uKd7px7VGqDDD-8" value="Public&lt;br&gt;Service" style="ellipse;whiteSpace=wrap;html=1;" vertex="1" parent="1">
          <mxGeometry x="2940" y="83" width="120" height="80" as="geometry" />
        </mxCell>
        <mxCell id="I1L7C43uKd7px7VGqDDD-9" value="Note" style="text;html=1;strokeColor=none;fillColor=none;align=center;verticalAlign=middle;whiteSpace=wrap;rounded=0;fontSize=56;" vertex="1" parent="1">
          <mxGeometry x="2800" y="43" width="40" height="20" as="geometry" />
        </mxCell>
        <mxCell id="I1L7C43uKd7px7VGqDDD-11" value="Private&lt;br&gt;Service" style="ellipse;whiteSpace=wrap;html=1;fillColor=#e1d5e7;strokeColor=#9673a6;" vertex="1" parent="1">
          <mxGeometry x="2940" y="183" width="120" height="80" as="geometry" />
        </mxCell>
        <mxCell id="I1L7C43uKd7px7VGqDDD-12" value="&lt;font style=&quot;font-size: 16px&quot;&gt;App service&lt;/font&gt;" style="rounded=0;whiteSpace=wrap;html=1;fillColor=#d5e8d4;strokeColor=#82b366;fontSize=16;" vertex="1" parent="1">
          <mxGeometry x="2900" y="313" width="200" height="60" as="geometry" />
        </mxCell>
        <mxCell id="I1L7C43uKd7px7VGqDDD-18" value="Storage&lt;br&gt;Service" style="shape=cylinder3;whiteSpace=wrap;html=1;boundedLbl=1;backgroundOutline=1;size=15;fillColor=#0050ef;strokeColor=#001DBC;fontColor=#ffffff;fontSize=16;" vertex="1" parent="1">
          <mxGeometry x="2940" y="410" width="120" height="140" as="geometry" />
        </mxCell>
      </root>
    </mxGraphModel>
  </diagram>
</mxfile>
